<mxfile host="app.diagrams.net" agent="Mozilla/5.0 (Windows NT 10.0; Win64; x64) AppleWebKit/537.36 (KHTML, like Gecko) Chrome/141.0.0.0 Safari/537.36" version="28.2.5">
  <diagram name="Страница — 1" id="R2wSkaVMbLC7iS_dHdfB">
    <mxGraphModel dx="1895" dy="1098" grid="1" gridSize="10" guides="1" tooltips="1" connect="1" arrows="1" fold="1" page="1" pageScale="1" pageWidth="827" pageHeight="1169" math="0" shadow="0">
      <root>
        <mxCell id="0" />
        <mxCell id="1" parent="0" />
        <mxCell id="L8R40jdyZAvTHfRNHTY6-1" value="&lt;font style=&quot;font-size: 20px;&quot;&gt;Регистр&amp;nbsp;&lt;/font&gt;&lt;div&gt;&lt;font style=&quot;font-size: 20px;&quot;&gt;захвата/сравнения&lt;/font&gt;&lt;/div&gt;" style="rounded=0;whiteSpace=wrap;html=1;strokeWidth=1.9685;" vertex="1" parent="1">
          <mxGeometry x="385.44000000000005" y="430.15999999999997" width="201.97" height="80.94" as="geometry" />
        </mxCell>
        <mxCell id="L8R40jdyZAvTHfRNHTY6-2" value="&lt;font style=&quot;font-size: 20px;&quot;&gt;CNT&lt;/font&gt;" style="rounded=0;whiteSpace=wrap;html=1;" vertex="1" parent="1">
          <mxGeometry x="380" y="240" width="202.43" height="69.76" as="geometry" />
        </mxCell>
        <mxCell id="L8R40jdyZAvTHfRNHTY6-3" value="" style="shape=flexArrow;endArrow=classic;html=1;rounded=0;endWidth=60.24340770791075;endSize=15.013793103448275;width=46.20689655172414;" edge="1" parent="1">
          <mxGeometry width="50" height="50" relative="1" as="geometry">
            <mxPoint x="481.57000000000016" y="309.54999999999995" as="sourcePoint" />
            <mxPoint x="481.8900000000001" y="430.15999999999997" as="targetPoint" />
          </mxGeometry>
        </mxCell>
        <mxCell id="L8R40jdyZAvTHfRNHTY6-4" value="&lt;span style=&quot;font-size: 20px;&quot;&gt;Контроллер выхода&lt;/span&gt;" style="rounded=0;whiteSpace=wrap;html=1;strokeWidth=1.9685;" vertex="1" parent="1">
          <mxGeometry x="730" y="430.15999999999997" width="201.97" height="80.94" as="geometry" />
        </mxCell>
        <mxCell id="L8R40jdyZAvTHfRNHTY6-5" value="" style="endArrow=classic;html=1;rounded=0;entryX=0;entryY=0.5;entryDx=0;entryDy=0;" edge="1" parent="1" target="L8R40jdyZAvTHfRNHTY6-4">
          <mxGeometry width="50" height="50" relative="1" as="geometry">
            <mxPoint x="587.4100000000001" y="470.29" as="sourcePoint" />
            <mxPoint x="655.44" y="470.29" as="targetPoint" />
          </mxGeometry>
        </mxCell>
        <mxCell id="L8R40jdyZAvTHfRNHTY6-6" value="&lt;font style=&quot;font-size: 20px;&quot;&gt;OCx_REF&lt;/font&gt;" style="text;html=1;align=center;verticalAlign=middle;whiteSpace=wrap;rounded=0;" vertex="1" parent="1">
          <mxGeometry x="630" y="439.99999999999994" width="60" height="30" as="geometry" />
        </mxCell>
        <mxCell id="L8R40jdyZAvTHfRNHTY6-7" value="&lt;font style=&quot;font-size: 20px;&quot;&gt;OC1M[2:0]&lt;/font&gt;" style="rounded=0;whiteSpace=wrap;html=1;" vertex="1" parent="1">
          <mxGeometry x="770.98" y="570" width="120" height="30" as="geometry" />
        </mxCell>
        <mxCell id="L8R40jdyZAvTHfRNHTY6-8" value="" style="endArrow=none;html=1;rounded=0;entryX=0.495;entryY=1.028;entryDx=0;entryDy=0;entryPerimeter=0;" edge="1" parent="1" target="L8R40jdyZAvTHfRNHTY6-4">
          <mxGeometry width="50" height="50" relative="1" as="geometry">
            <mxPoint x="830" y="570" as="sourcePoint" />
            <mxPoint x="830" y="520" as="targetPoint" />
          </mxGeometry>
        </mxCell>
        <mxCell id="L8R40jdyZAvTHfRNHTY6-9" value="&lt;font style=&quot;font-size: 20px;&quot;&gt;TIMxCCMR1&lt;/font&gt;" style="text;html=1;align=center;verticalAlign=middle;whiteSpace=wrap;rounded=0;" vertex="1" parent="1">
          <mxGeometry x="800.99" y="610" width="60" height="30" as="geometry" />
        </mxCell>
        <mxCell id="L8R40jdyZAvTHfRNHTY6-10" value="" style="verticalLabelPosition=middle;verticalAlign=middle;html=1;shape=trapezoid;perimeter=trapezoidPerimeter;whiteSpace=wrap;size=0.23;arcSize=10;flipV=1;labelPosition=center;align=center;rotation=-90;strokeWidth=2;" vertex="1" parent="1">
          <mxGeometry x="1290" y="410" width="140" height="40" as="geometry" />
        </mxCell>
        <mxCell id="L8R40jdyZAvTHfRNHTY6-11" value="" style="endArrow=none;html=1;rounded=0;exitX=1;exitY=0.5;exitDx=0;exitDy=0;" edge="1" parent="1" source="L8R40jdyZAvTHfRNHTY6-4">
          <mxGeometry width="50" height="50" relative="1" as="geometry">
            <mxPoint x="1010" y="470" as="sourcePoint" />
            <mxPoint x="1220" y="470" as="targetPoint" />
          </mxGeometry>
        </mxCell>
        <mxCell id="L8R40jdyZAvTHfRNHTY6-12" value="" style="triangle;whiteSpace=wrap;html=1;strokeWidth=2;" vertex="1" parent="1">
          <mxGeometry x="1220" y="431.1" width="60" height="80" as="geometry" />
        </mxCell>
        <mxCell id="L8R40jdyZAvTHfRNHTY6-13" value="" style="ellipse;whiteSpace=wrap;html=1;aspect=fixed;strokeWidth=2;" vertex="1" parent="1">
          <mxGeometry x="1280" y="461.1" width="20" height="20" as="geometry" />
        </mxCell>
        <mxCell id="L8R40jdyZAvTHfRNHTY6-14" value="" style="endArrow=none;html=1;rounded=0;entryX=0.214;entryY=1;entryDx=0;entryDy=0;entryPerimeter=0;" edge="1" parent="1" target="L8R40jdyZAvTHfRNHTY6-10">
          <mxGeometry width="50" height="50" relative="1" as="geometry">
            <mxPoint x="1300" y="470" as="sourcePoint" />
            <mxPoint x="1350" y="420" as="targetPoint" />
          </mxGeometry>
        </mxCell>
        <mxCell id="L8R40jdyZAvTHfRNHTY6-15" value="" style="endArrow=none;html=1;rounded=0;entryX=0.786;entryY=1;entryDx=0;entryDy=0;entryPerimeter=0;" edge="1" parent="1" target="L8R40jdyZAvTHfRNHTY6-10">
          <mxGeometry width="50" height="50" relative="1" as="geometry">
            <mxPoint x="1100" y="470" as="sourcePoint" />
            <mxPoint x="1100" y="340" as="targetPoint" />
            <Array as="points">
              <mxPoint x="1100" y="390" />
            </Array>
          </mxGeometry>
        </mxCell>
        <mxCell id="L8R40jdyZAvTHfRNHTY6-16" value="" style="endArrow=none;html=1;rounded=0;" edge="1" parent="1">
          <mxGeometry width="50" height="50" relative="1" as="geometry">
            <mxPoint x="1380" y="431.1" as="sourcePoint" />
            <mxPoint x="1460" y="431" as="targetPoint" />
          </mxGeometry>
        </mxCell>
        <mxCell id="L8R40jdyZAvTHfRNHTY6-17" value="&lt;font style=&quot;font-size: 20px;&quot;&gt;Разрешение выхода&lt;/font&gt;" style="rounded=0;whiteSpace=wrap;html=1;strokeWidth=2;" vertex="1" parent="1">
          <mxGeometry x="1460" y="390" width="200" height="80" as="geometry" />
        </mxCell>
        <mxCell id="L8R40jdyZAvTHfRNHTY6-18" value="" style="endArrow=none;html=1;rounded=0;" edge="1" parent="1">
          <mxGeometry width="50" height="50" relative="1" as="geometry">
            <mxPoint x="1660" y="430.16" as="sourcePoint" />
            <mxPoint x="1720" y="430" as="targetPoint" />
          </mxGeometry>
        </mxCell>
        <mxCell id="L8R40jdyZAvTHfRNHTY6-19" value="" style="whiteSpace=wrap;html=1;aspect=fixed;strokeWidth=2;" vertex="1" parent="1">
          <mxGeometry x="1720" y="420" width="20" height="20" as="geometry" />
        </mxCell>
        <mxCell id="L8R40jdyZAvTHfRNHTY6-20" value="&lt;font style=&quot;font-size: 20px;&quot;&gt;1&lt;/font&gt;" style="text;html=1;align=center;verticalAlign=middle;whiteSpace=wrap;rounded=0;" vertex="1" parent="1">
          <mxGeometry x="1340" y="465.63" width="20" height="10" as="geometry" />
        </mxCell>
        <mxCell id="L8R40jdyZAvTHfRNHTY6-21" value="&lt;font style=&quot;font-size: 20px;&quot;&gt;0&lt;/font&gt;" style="text;html=1;align=center;verticalAlign=middle;whiteSpace=wrap;rounded=0;" vertex="1" parent="1">
          <mxGeometry x="1340" y="380" width="20" height="10" as="geometry" />
        </mxCell>
        <mxCell id="L8R40jdyZAvTHfRNHTY6-22" value="&lt;font style=&quot;font-size: 20px;&quot;&gt;CC1P&lt;/font&gt;" style="rounded=0;whiteSpace=wrap;html=1;strokeWidth=2;" vertex="1" parent="1">
          <mxGeometry x="1300" y="530" width="120" height="30" as="geometry" />
        </mxCell>
        <mxCell id="L8R40jdyZAvTHfRNHTY6-23" value="" style="endArrow=classic;html=1;rounded=0;" edge="1" parent="1">
          <mxGeometry width="50" height="50" relative="1" as="geometry">
            <mxPoint x="1100" y="390" as="sourcePoint" />
            <mxPoint x="1180" y="320" as="targetPoint" />
            <Array as="points">
              <mxPoint x="1100" y="320" />
            </Array>
          </mxGeometry>
        </mxCell>
        <mxCell id="L8R40jdyZAvTHfRNHTY6-24" value="&lt;font style=&quot;font-size: 20px;&quot;&gt;TIMx_CCER&lt;/font&gt;" style="text;html=1;align=center;verticalAlign=middle;whiteSpace=wrap;rounded=0;" vertex="1" parent="1">
          <mxGeometry x="1330" y="570" width="60" height="30" as="geometry" />
        </mxCell>
        <mxCell id="L8R40jdyZAvTHfRNHTY6-25" value="" style="endArrow=none;html=1;rounded=0;entryX=0;entryY=0.5;entryDx=0;entryDy=0;" edge="1" parent="1" target="L8R40jdyZAvTHfRNHTY6-10">
          <mxGeometry width="50" height="50" relative="1" as="geometry">
            <mxPoint x="1360" y="531.1" as="sourcePoint" />
            <mxPoint x="1410" y="481.1" as="targetPoint" />
          </mxGeometry>
        </mxCell>
        <mxCell id="L8R40jdyZAvTHfRNHTY6-26" value="&lt;font style=&quot;font-size: 20px;&quot;&gt;OC1&lt;/font&gt;" style="text;html=1;align=center;verticalAlign=middle;whiteSpace=wrap;rounded=0;" vertex="1" parent="1">
          <mxGeometry x="1750" y="415" width="60" height="30" as="geometry" />
        </mxCell>
        <mxCell id="L8R40jdyZAvTHfRNHTY6-27" value="&lt;font style=&quot;font-size: 20px;&quot;&gt;В контроллер режима ведущего&lt;/font&gt;" style="text;html=1;align=center;verticalAlign=middle;whiteSpace=wrap;rounded=0;" vertex="1" parent="1">
          <mxGeometry x="1180" y="300" width="310" height="30" as="geometry" />
        </mxCell>
        <mxCell id="L8R40jdyZAvTHfRNHTY6-28" value="&lt;font style=&quot;font-size: 20px;&quot;&gt;CC1E&lt;/font&gt;" style="rounded=0;whiteSpace=wrap;html=1;strokeWidth=2;" vertex="1" parent="1">
          <mxGeometry x="1500" y="530" width="120" height="30" as="geometry" />
        </mxCell>
        <mxCell id="L8R40jdyZAvTHfRNHTY6-29" value="" style="endArrow=none;html=1;rounded=0;entryX=0.5;entryY=1;entryDx=0;entryDy=0;" edge="1" parent="1" target="L8R40jdyZAvTHfRNHTY6-17">
          <mxGeometry width="50" height="50" relative="1" as="geometry">
            <mxPoint x="1559.8" y="530" as="sourcePoint" />
            <mxPoint x="1559.8" y="482.9" as="targetPoint" />
          </mxGeometry>
        </mxCell>
        <mxCell id="L8R40jdyZAvTHfRNHTY6-30" value="&lt;font style=&quot;font-size: 20px;&quot;&gt;TIMx_CCER&lt;/font&gt;" style="text;html=1;align=center;verticalAlign=middle;whiteSpace=wrap;rounded=0;" vertex="1" parent="1">
          <mxGeometry x="1530" y="570" width="60" height="30" as="geometry" />
        </mxCell>
        <mxCell id="L8R40jdyZAvTHfRNHTY6-31" value="&lt;font style=&quot;font-size: 20px;&quot;&gt;OCx_REF_NEW&lt;/font&gt;" style="text;html=1;align=center;verticalAlign=middle;whiteSpace=wrap;rounded=0;" vertex="1" parent="1">
          <mxGeometry x="980" y="440" width="60" height="30" as="geometry" />
        </mxCell>
      </root>
    </mxGraphModel>
  </diagram>
</mxfile>
